<svg xmlns="http://www.w3.org/2000/svg" xmlns:xlink="http://www.w3.org/1999/xlink" viewBox="0 0 618.92 131.3"><defs><style>.cls-1{isolation:isolate;}.cls-2{fill:url(#linear-gradient);}.cls-3{fill:none;}.cls-4{fill:#fbb040;}.cls-5{fill:url(#linear-gradient-2);}.cls-6{fill:#00aeef;}.cls-7{mix-blend-mode:multiply;}</style><linearGradient id="linear-gradient" x1="86.57" y1="66.05" x2="162.33" y2="66.05" gradientUnits="userSpaceOnUse"><stop offset="0" stop-color="#fff200"/><stop offset="0.13" stop-color="#fdd61b"/><stop offset="0.26" stop-color="#fcc130"/><stop offset="0.39" stop-color="#fbb43c"/><stop offset="0.51" stop-color="#fbb040"/></linearGradient><linearGradient id="linear-gradient-2" x1="67.69" y1="127.14" x2="67.69" y2="4.96" gradientUnits="userSpaceOnUse"><stop offset="0" stop-color="#fff200"/><stop offset="0.66" stop-color="#fbb040"/></linearGradient></defs><title>Final logos</title><g class="cls-1"><g id="Layer_1" data-name="Layer 1"><path class="cls-2" d="M101.28,127.13a21.46,21.46,0,0,1-10.17-2.55l-4.54-2.46,4.54-2.46A15.54,15.54,0,0,0,94.75,117l39.78-39.78a15.72,15.72,0,0,0,0-22.24L94.75,15.15a15.58,15.58,0,0,0-3.64-2.72L86.57,10l4.54-2.46a21.48,21.48,0,0,1,13.07-2.36,21.14,21.14,0,0,1,12.14,6L156.1,51a21.34,21.34,0,0,1,0,30.14L116.32,120.9a21.14,21.14,0,0,1-12.14,6A21.62,21.62,0,0,1,101.28,127.13Zm-3-5.86A15.71,15.71,0,0,0,112.37,117l39.78-39.78a15.75,15.75,0,0,0,0-22.24L112.37,15.15a15.68,15.68,0,0,0-9-4.46,16.15,16.15,0,0,0-5.1.13l.38.38h0L138.48,51a21.32,21.32,0,0,1,0,30.14L98.7,120.9Z"/><rect class="cls-3" x="21.04" y="19.4" width="93.29" height="93.29" rx="37.53" transform="translate(-26.88 67.21) rotate(-45)"/><path class="cls-4" d="M67.69,127.14a21.19,21.19,0,0,1-15.07-6.24L12.84,81.12a21.32,21.32,0,0,1,0-30.14L52.62,11.2a21.32,21.32,0,0,1,30.14,0L122.54,51a21.32,21.32,0,0,1,0,30.14L82.76,120.9A21.21,21.21,0,0,1,67.69,127.14Zm0-116.6a15.63,15.63,0,0,0-11.12,4.61L16.79,54.93a15.74,15.74,0,0,0,0,22.24L56.57,117a15.74,15.74,0,0,0,22.24,0l39.78-39.78,2,2-2-2a15.74,15.74,0,0,0,0-22.24L78.81,15.15A15.63,15.63,0,0,0,67.69,10.54Z"/><path class="cls-5" d="M67.69,127.14a21.19,21.19,0,0,1-15.07-6.24L12.84,81.12a21.32,21.32,0,0,1,0-30.14L52.62,11.2a21.32,21.32,0,0,1,30.14,0L122.54,51a21.32,21.32,0,0,1,0,30.14L82.76,120.9A21.21,21.21,0,0,1,67.69,127.14Zm0-116.6a15.63,15.63,0,0,0-11.12,4.61L16.79,54.93a15.74,15.74,0,0,0,0,22.24L56.57,117a15.74,15.74,0,0,0,22.24,0l39.78-39.78,2,2-2-2a15.74,15.74,0,0,0,0-22.24L78.81,15.15A15.63,15.63,0,0,0,67.69,10.54Z"/><path class="cls-6" d="M35.34,66.86H30.46V63.49h4.88V58.2h3.51v5.29h4.88v3.37H38.85v5.3H35.34Z"/><g class="cls-7"><path class="cls-6" d="M37,83a17.89,17.89,0,1,1,12.65-5.23A17.85,17.85,0,0,1,37,83Zm0-33A15.09,15.09,0,1,0,47.68,54.4,15.06,15.06,0,0,0,37,50Z"/></g><path class="cls-6" d="M64.35,94.68h8.34v3.85H64.35Z"/><g class="cls-7"><path class="cls-6" d="M67.85,113.84A17.9,17.9,0,0,1,55.2,83.28a17.9,17.9,0,1,1,12.65,30.56Zm0-33a15.11,15.11,0,1,0,10.68,4.42A15.1,15.1,0,0,0,67.85,80.84Z"/></g><path class="cls-6" d="M95.91,65.4,92.46,62l2.39-2.38L98.3,63,102,59.27l2.48,2.48-3.74,3.75L104.23,69l-2.39,2.38-3.45-3.45-3.74,3.75-2.48-2.49Z"/><g class="cls-7"><path class="cls-6" d="M98.15,83.53a17.9,17.9,0,1,1,12.66-5.24A17.84,17.84,0,0,1,98.15,83.53Zm0-33A15.1,15.1,0,1,0,108.83,55,15.06,15.06,0,0,0,98.15,50.54Z"/></g><g class="cls-7"><path class="cls-6" d="M67.3,52.67A17.89,17.89,0,1,1,80,47.44,17.85,17.85,0,0,1,67.3,52.67Zm0-33A15.09,15.09,0,1,0,78,24.1,15.06,15.06,0,0,0,67.3,19.69Z"/></g><path class="cls-6" d="M60.48,32.86H74.11v3.85H60.48Z"/><circle class="cls-6" cx="67.3" cy="29.38" r="1.92"/><circle class="cls-6" cx="67.3" cy="40.18" r="1.92"/><path class="cls-6" d="M241.4,76.29A33.54,33.54,0,0,1,238.71,87a26.06,26.06,0,0,1-6,8.51,26.87,26.87,0,0,1-9.32,5.63,37.18,37.18,0,0,1-12.82,2,35.7,35.7,0,0,1-14.44-2.73,28.35,28.35,0,0,1-10.44-7.71,33,33,0,0,1-6.33-12,53.54,53.54,0,0,1-2.13-15.55,49.68,49.68,0,0,1,2.33-15.81,34.23,34.23,0,0,1,6.69-12,28.84,28.84,0,0,1,10.54-7.6,35.27,35.27,0,0,1,14-2.64,37.62,37.62,0,0,1,12,1.73,23.64,23.64,0,0,1,8.62,5A25,25,0,0,1,237,41.63a41,41,0,0,1,3.14,10.23l-15,1.93a20.21,20.21,0,0,0-4.3-10q-3.19-3.66-10.09-3.65-8.72,0-13.22,6.53t-4.51,18.5q0,12.06,4.81,18.54a15.27,15.27,0,0,0,12.92,6.49q7,0,10.29-3.6t4.1-10.28Z"/><path class="cls-6" d="M246.16,48.42h14.19v33q0,5.68,2,7.66a7.69,7.69,0,0,0,5.58,2,10.9,10.9,0,0,0,4.51-.81,12.77,12.77,0,0,0,3.39-2.33,10.82,10.82,0,0,0,2.59-3.39,9.76,9.76,0,0,0,1-4.31V48.42h14.19v52.9H279.81V94a20.83,20.83,0,0,1-7.35,6.79,18.78,18.78,0,0,1-8.77,2.13q-9,0-13.27-4.71t-4.26-14.85Z"/><path class="cls-6" d="M302.1,29h14.19V54.8a19.17,19.17,0,0,1,16.21-8q11.06,0,16.52,7.49t5.47,20.58a39.18,39.18,0,0,1-1.57,11.45,25.78,25.78,0,0,1-4.56,8.87,20.65,20.65,0,0,1-7.24,5.72,22.16,22.16,0,0,1-9.63,2,21.46,21.46,0,0,1-8.21-1.62,19,19,0,0,1-7.4-5.88v5.88H302.1Zm14.09,46.31a31.58,31.58,0,0,0,.86,8.26,11.07,11.07,0,0,0,2.79,5,10.14,10.14,0,0,0,4.1,2.38,16.23,16.23,0,0,0,4.21.56,11.28,11.28,0,0,0,4.45-.91,9.5,9.5,0,0,0,3.7-2.89,14.83,14.83,0,0,0,2.49-5.12,27.85,27.85,0,0,0,.91-7.6,30.14,30.14,0,0,0-.86-7.8,14.76,14.76,0,0,0-2.38-5.12,8.78,8.78,0,0,0-3.6-2.84,11.51,11.51,0,0,0-4.41-.86,13.23,13.23,0,0,0-4.56.71,12.68,12.68,0,0,0-3.75,2.23,11.47,11.47,0,0,0-3,4.86,24.6,24.6,0,0,0-1,7.5Z"/><path class="cls-6" d="M408.61,84.8q-1.42,8.92-7.14,13.53t-16.67,4.61q-13.19,0-19.82-7.3T358.35,75a34.36,34.36,0,0,1,1.92-11.91,25.3,25.3,0,0,1,5.42-8.87,22.79,22.79,0,0,1,8.36-5.52A29.7,29.7,0,0,1,384.8,46.8q12.15,0,18.29,7t6.13,18.85v5.67H372.53q.21,6.39,3.25,10t9.12,3.59c5.6,0,8.92-2.36,9.93-7.09ZM395.54,69q0-5.47-2.69-8.51t-8.36-3a12.44,12.44,0,0,0-5,.91,10.52,10.52,0,0,0-3.6,2.48,11.37,11.37,0,0,0-2.28,3.65,13.76,13.76,0,0,0-.91,4.51Z"/><path class="cls-4" d="M478.74,76.29A33.28,33.28,0,0,1,476.05,87a26.06,26.06,0,0,1-6,8.51,26.87,26.87,0,0,1-9.32,5.63,37.14,37.14,0,0,1-12.82,2,35.7,35.7,0,0,1-14.44-2.73,28.35,28.35,0,0,1-10.44-7.71,33.19,33.19,0,0,1-6.33-12,53.54,53.54,0,0,1-2.13-15.55,50,50,0,0,1,2.33-15.81,34.23,34.23,0,0,1,6.69-12,28.93,28.93,0,0,1,10.54-7.6,35.27,35.27,0,0,1,14-2.64,37.62,37.62,0,0,1,12,1.73,23.56,23.56,0,0,1,8.62,5,25,25,0,0,1,5.62,7.81,41,41,0,0,1,3.14,10.23l-15,1.93a20.12,20.12,0,0,0-4.3-10q-3.2-3.66-10.09-3.65-8.72,0-13.22,6.53t-4.51,18.5q0,12.06,4.81,18.54a15.27,15.27,0,0,0,12.92,6.49c4.67,0,8.09-1.2,10.29-3.6s3.56-5.82,4.1-10.28Z"/><path class="cls-4" d="M515.43,94.63a28,28,0,0,1-7,5.78,20.23,20.23,0,0,1-10.08,2.23,24.33,24.33,0,0,1-6.74-.92A15.36,15.36,0,0,1,486,98.89,14,14,0,0,1,482.18,94a16.59,16.59,0,0,1-1.41-7.14,15.14,15.14,0,0,1,2.43-8.92,16.47,16.47,0,0,1,6.38-5.37,31.87,31.87,0,0,1,8.87-2.74,80.32,80.32,0,0,1,10-1l6.79-.31V65.85c0-3.25-.89-5.47-2.68-6.69a11,11,0,0,0-6.34-1.82q-8.42,0-9.62,6.38l-13-1.22q1.42-8.31,7.3-12t15.81-3.69a32.2,32.2,0,0,1,10.34,1.46,17,17,0,0,1,6.84,4.21,16.34,16.34,0,0,1,3.75,6.64,30.81,30.81,0,0,1,1.16,8.76v33.45H515.43Zm-.31-16.92-6.28.3a36.84,36.84,0,0,0-7.2.91,12.81,12.81,0,0,0-4.2,1.77,5.3,5.3,0,0,0-2,2.49,9.19,9.19,0,0,0-.51,3.14,5.09,5.09,0,0,0,1.83,4.15A7.63,7.63,0,0,0,501.85,92a14.65,14.65,0,0,0,8.91-2.53,10.53,10.53,0,0,0,4.36-9Z"/><path class="cls-4" d="M533.87,29h14.19v72.36H533.87Z"/><path class="cls-4" d="M601.16,82.16q-.81,9.54-6.54,15.16t-17.18,5.62a30,30,0,0,1-11.55-2,20.6,20.6,0,0,1-7.95-5.67,23.63,23.63,0,0,1-4.61-8.82A40.22,40.22,0,0,1,551.81,75a35.61,35.61,0,0,1,1.77-11.5,25.2,25.2,0,0,1,5.12-8.92,22.52,22.52,0,0,1,8.21-5.73,28.75,28.75,0,0,1,11.14-2,29.13,29.13,0,0,1,9.38,1.36,19.69,19.69,0,0,1,6.74,3.8,17.11,17.11,0,0,1,4.25,5.83,26,26,0,0,1,2,7.45l-14.29,1.93a13.75,13.75,0,0,0-2.33-6.54c-1.22-1.66-3.31-2.48-6.28-2.48a9.73,9.73,0,0,0-5.37,1.36,10,10,0,0,0-3.4,3.7A16.76,16.76,0,0,0,567,68.53a37.1,37.1,0,0,0-.51,6.24,38.53,38.53,0,0,0,.51,6.38,17.64,17.64,0,0,0,1.72,5.37,9.49,9.49,0,0,0,3.34,3.7,9.77,9.77,0,0,0,5.37,1.37A8.7,8.7,0,0,0,584,89.16a11.21,11.21,0,0,0,2.74-7Z"/></g></g></svg>